<?xml version="1.0" standalone="no"?>
<!DOCTYPE svg PUBLIC "-//W3C//DTD SVG 20010904//EN"
 "http://www.w3.org/TR/2001/REC-SVG-20010904/DTD/svg10.dtd">
<svg version="1.0" xmlns="http://www.w3.org/2000/svg"
 width="490.000000pt" height="490.000000pt" viewBox="0 0 490.000000 490.000000"
 preserveAspectRatio="xMidYMid meet">
<metadata>
Created by potrace 1.14, written by Peter Selinger 2001-2017
</metadata>
<g transform="translate(0.000000,490.000000) scale(0.100000,-0.100000)"
fill="#000000" stroke="none">
<path d="M2349 4475 c-2 -2 -31 -5 -64 -8 -62 -4 -74 -7 -135 -34 -19 -8 -36
-15 -37 -14 -3 1 -38 -29 -79 -66 -13 -12 -24 -25 -24 -29 0 -4 -6 -12 -13
-18 -8 -6 -25 -36 -38 -66 -19 -45 -23 -71 -22 -145 1 -98 10 -155 25 -155 5
0 7 -4 3 -9 -3 -5 -1 -12 5 -16 6 -4 8 -10 5 -15 -3 -4 2 -10 10 -14 8 -3 15
-11 15 -18 0 -8 9 -20 19 -28 11 -7 18 -17 15 -22 -3 -5 -2 -7 3 -6 12 4 73
-60 73 -75 0 -7 4 -17 10 -23 22 -22 9 -150 -18 -170 -9 -7 -13 -14 -9 -14 16
0 -60 -59 -86 -65 -15 -4 -27 -12 -27 -18 0 -6 -3 -7 -7 -4 -8 8 -144 -64
-175 -93 -12 -11 -28 -20 -35 -20 -8 0 -12 -3 -10 -7 3 -5 -1 -14 -9 -21 -8
-7 -14 -10 -14 -6 0 4 -8 -3 -19 -14 -10 -12 -21 -18 -25 -14 -4 4 -6 2 -4 -3
1 -6 -9 -23 -24 -40 -43 -48 -62 -72 -78 -95 -8 -12 -21 -28 -28 -36 -7 -7
-13 -16 -12 -19 0 -3 -13 -32 -29 -64 -16 -33 -26 -62 -23 -65 3 -4 1 -6 -4
-6 -5 0 -11 -10 -11 -22 -1 -13 -7 -24 -12 -26 -5 -2 -7 -10 -5 -17 3 -8 2
-20 -2 -27 -4 -7 -9 -19 -10 -28 -2 -8 -6 -31 -9 -50 -13 -66 -7 -313 9 -338
4 -7 3 -12 -2 -12 -5 0 -9 -6 -9 -14 0 -22 -33 -86 -44 -86 -6 0 -7 -4 -4 -10
3 -5 0 -10 -7 -10 -7 0 -24 -12 -37 -25 -16 -18 -27 -22 -35 -15 -7 5 -16 6
-22 1 -15 -15 -91 28 -132 75 -37 41 -59 92 -67 154 -2 16 -6 34 -10 40 -3 5
-1 10 5 10 7 0 8 6 1 19 -6 10 -8 31 -4 47 6 31 6 32 0 82 -2 17 0 32 4 32 4
0 5 10 2 23 -8 35 -4 79 12 109 7 16 9 25 3 22 -5 -4 -2 5 7 20 10 14 22 26
28 26 6 0 7 3 4 6 -4 4 10 20 31 35 20 16 42 33 49 39 7 5 16 10 20 10 4 0 19
12 32 25 13 14 27 25 31 25 5 0 11 9 15 20 3 11 9 19 13 17 4 -1 8 1 10 6 1 4
10 16 20 26 25 28 38 45 39 51 2 20 16 50 24 50 6 0 8 4 5 9 -4 5 -1 22 5 37
5 16 13 47 15 69 3 22 7 49 8 60 2 11 1 28 -3 38 -6 16 -9 15 -40 -7 -19 -14
-39 -23 -45 -19 -6 3 -8 3 -4 -2 4 -4 -12 -21 -35 -38 -23 -17 -45 -35 -49
-41 -4 -6 -8 -8 -8 -3 0 12 -44 -37 -47 -52 -1 -9 -9 -21 -17 -27 -9 -6 -16
-14 -16 -18 0 -4 -9 -16 -20 -28 -11 -12 -20 -19 -20 -15 0 3 -11 -4 -25 -17
-14 -13 -47 -30 -73 -37 -49 -14 -151 -16 -180 -3 -9 4 -19 8 -22 8 -20 5 -88
51 -84 58 3 4 0 8 -6 8 -15 0 -41 26 -33 34 4 3 1 6 -5 6 -7 0 -12 7 -12 15 0
8 -4 15 -9 15 -10 0 -33 87 -36 135 -1 17 2 36 8 43 6 8 5 12 -4 12 -9 0 -10
3 -4 8 6 4 11 17 13 30 4 29 21 62 52 98 57 67 138 104 235 108 69 4 111 13
143 34 12 8 22 11 22 8 0 -4 17 2 39 13 21 11 41 17 45 14 3 -4 6 -1 6 5 0 7
7 12 15 12 35 0 10 27 -53 57 -77 36 -105 45 -147 49 -16 1 -32 3 -35 4 -17 6
-170 -8 -184 -18 -6 -4 -13 -7 -16 -8 -3 0 -18 -6 -33 -12 -16 -7 -32 -12 -37
-12 -5 0 -10 -4 -12 -9 -2 -5 -10 -11 -18 -13 -8 -2 -26 -14 -39 -28 -14 -14
-28 -25 -32 -25 -11 0 -98 -112 -92 -119 4 -3 1 -6 -5 -6 -7 0 -12 -6 -12 -12
0 -7 -6 -25 -14 -39 -7 -14 -17 -43 -21 -65 -5 -21 -10 -46 -12 -54 -4 -20 -4
-117 1 -155 2 -16 14 -56 25 -87 12 -32 21 -59 19 -61 -2 -1 3 -9 10 -17 7 -8
22 -26 33 -40 12 -14 31 -37 43 -51 12 -14 52 -46 89 -71 37 -25 64 -48 60
-51 -3 -4 0 -7 8 -7 17 0 68 -75 70 -102 1 -17 4 -29 9 -45 5 -18 5 -50 -2
-69 -4 -12 -4 -25 -1 -28 12 -11 10 -135 -1 -129 -6 3 -6 0 1 -7 8 -9 9 -19 2
-32 -5 -10 -6 -18 -1 -18 5 0 7 -12 5 -27 -2 -16 -5 -50 -7 -78 -3 -55 -18
-113 -43 -172 -9 -21 -17 -40 -18 -43 -7 -21 -20 -46 -29 -52 -6 -4 -11 -11
-11 -15 -1 -4 -13 -31 -28 -60 -30 -58 -40 -99 -41 -160 0 -24 -5 -43 -10 -43
-6 0 -5 -5 2 -12 7 -7 12 -23 12 -36 0 -65 131 -252 176 -252 8 0 14 -4 14
-10 0 -5 9 -10 19 -10 11 0 22 -4 25 -9 4 -5 24 -12 46 -16 22 -4 40 -12 40
-18 0 -8 3 -8 12 1 7 7 17 8 30 1 10 -5 18 -6 18 -1 0 4 20 7 45 7 25 -1 45 2
45 6 0 4 16 10 35 13 19 4 35 12 35 18 0 6 3 8 6 5 14 -13 154 107 154 132 0
6 5 11 10 11 6 0 9 3 8 8 -1 4 5 21 12 37 16 36 15 33 24 70 14 56 28 85 39
78 6 -3 7 -1 3 6 -7 11 29 48 48 49 5 0 12 6 17 13 17 29 113 33 170 7 24 -10
46 -22 49 -27 10 -15 134 -94 147 -94 7 0 13 -4 13 -8 0 -7 77 -39 145 -60 22
-6 47 -14 55 -17 19 -6 51 -10 113 -16 27 -2 51 -7 54 -10 3 -2 16 -1 29 4 13
5 24 6 24 2 0 -8 22 -7 95 4 22 3 47 6 55 8 8 1 21 5 28 9 6 5 12 6 12 3 0 -3
18 1 41 9 23 8 45 12 50 9 5 -3 9 0 9 5 0 6 9 11 20 11 11 0 20 5 20 10 0 6 3
9 8 8 11 -4 102 45 102 54 0 5 4 7 8 4 5 -3 19 4 30 15 12 11 22 17 22 14 0
-3 10 4 23 15 67 64 160 83 235 48 45 -22 78 -60 67 -78 -3 -5 -1 -10 6 -10 9
0 9 -3 0 -14 -7 -8 -8 -17 -4 -19 26 -16 -19 -130 -72 -183 -35 -35 -119 -94
-134 -94 -6 0 -11 -4 -11 -10 0 -5 -6 -10 -14 -10 -7 0 -30 -11 -50 -25 -20
-13 -36 -21 -36 -17 0 4 -4 2 -8 -4 -17 -24 -90 -49 -152 -51 -55 -1 -73 3
-119 28 -30 16 -59 29 -64 29 -6 0 -19 7 -29 17 -11 10 -18 12 -18 4 0 -8 -8
-7 -29 3 -36 19 -208 16 -261 -4 -3 -1 -9 -3 -15 -4 -17 -3 -70 -30 -76 -39
-3 -5 -9 -8 -13 -8 -41 6 -29 -18 24 -46 25 -12 51 -23 58 -23 6 0 12 -5 12
-10 0 -6 3 -9 8 -8 4 2 27 -6 52 -16 39 -17 94 -26 163 -27 9 0 17 -4 17 -10
0 -5 8 -9 18 -9 24 0 94 -47 120 -80 37 -47 60 -97 64 -136 1 -22 8 -42 13
-47 7 -4 7 -10 0 -15 -6 -4 -10 -18 -9 -32 1 -14 -3 -28 -10 -32 -8 -5 -7 -8
2 -8 10 0 10 -4 -2 -16 -9 -8 -16 -23 -16 -33 0 -9 -17 -36 -39 -58 -21 -23
-37 -44 -35 -46 2 -2 -12 -10 -31 -17 -19 -8 -35 -18 -35 -23 0 -5 -7 -7 -15
-4 -8 4 -17 2 -21 -4 -3 -6 -12 -8 -20 -5 -8 3 -14 1 -14 -4 0 -13 -129 -4
-166 12 -41 18 -104 61 -104 72 0 5 -9 16 -19 25 -11 10 -21 24 -23 31 -6 27
-37 62 -92 105 -22 17 -50 40 -62 53 -13 12 -26 21 -28 20 -3 -2 -14 5 -25 14
-11 10 -22 14 -25 10 -5 -9 1 -140 7 -167 9 -33 56 -151 57 -140 0 6 7 -4 16
-22 9 -17 23 -38 32 -47 9 -9 34 -32 55 -52 20 -20 37 -32 37 -28 0 5 4 4 8
-2 11 -16 108 -65 137 -69 6 -1 18 -5 28 -10 22 -9 150 -11 197 -2 51 9 108
31 163 61 50 28 159 131 149 140 -3 3 0 6 6 6 7 0 12 7 12 15 0 8 5 15 12 15
6 0 8 3 5 6 -3 4 2 18 13 31 10 13 16 31 13 39 -3 8 -1 14 4 14 5 0 10 6 11
13 1 6 4 30 8 52 4 22 8 64 8 92 1 29 5 53 9 53 5 0 6 3 3 8 -5 8 21 66 44 98
18 26 128 104 146 104 6 0 15 7 18 16 3 8 10 12 16 9 5 -3 10 -1 10 6 0 7 3 9
7 6 3 -4 17 3 30 15 13 12 23 18 23 13 0 -4 9 0 20 10 11 10 20 15 20 11 0 -4
7 0 16 8 8 9 19 14 24 11 4 -3 11 2 14 11 4 9 9 14 13 11 3 -4 11 -3 17 1 22
16 105 43 140 45 20 1 36 4 36 7 0 3 52 5 115 5 63 0 115 3 115 6 0 4 15 9 34
12 50 8 136 52 176 90 36 35 74 84 76 98 1 5 2 14 3 20 0 5 6 7 13 3 8 -5 9
-2 5 9 -3 9 -2 19 4 22 5 4 7 11 4 16 -4 5 -2 9 4 9 5 0 8 11 6 25 -1 14 1 27
5 30 7 5 5 67 -5 130 -8 55 -53 140 -97 186 -32 33 -136 101 -152 100 -9 -1
-39 10 -58 20 -11 5 -19 5 -23 -1 -4 -7 -13 -6 -26 0 -10 6 -19 7 -19 3 0 -4
-22 -9 -49 -10 -27 -1 -58 -6 -70 -12 -29 -16 -123 -16 -152 0 -42 24 -80 63
-101 102 -17 34 -19 51 -13 135 10 149 11 196 5 207 -2 6 -6 24 -7 40 -2 32
-6 52 -21 108 -6 20 -7 38 -4 41 3 3 0 6 -7 6 -7 0 -10 4 -6 9 3 5 1 12 -5 16
-6 4 -8 10 -5 15 3 5 1 11 -5 15 -6 4 -8 11 -5 16 4 5 1 9 -4 9 -6 0 -10 3 -9
8 2 10 -35 86 -44 90 -5 2 -8 10 -8 18 0 8 -4 14 -10 14 -5 0 -10 7 -10 15 0
9 -7 18 -15 21 -8 4 -13 10 -10 14 3 4 -2 11 -11 14 -8 3 -12 10 -9 16 3 5 -1
10 -9 10 -9 0 -16 4 -16 10 0 9 -41 52 -92 96 -67 58 -209 141 -230 136 -5 -1
-8 3 -8 9 0 5 -4 8 -9 4 -5 -3 -16 1 -24 9 -8 8 -17 13 -19 11 -3 -3 -18 7
-35 23 -34 30 -79 112 -63 112 7 0 8 5 3 13 -13 20 -11 66 3 71 8 3 14 11 14
19 0 13 59 53 73 49 4 -1 7 3 7 9 0 5 4 8 8 5 4 -2 14 -1 22 4 9 5 19 5 27 -2
9 -7 13 -7 13 0 0 6 16 10 35 9 19 -1 35 -4 35 -7 0 -3 8 -6 18 -7 38 -3 113
-35 145 -61 9 -8 17 -12 17 -9 0 7 63 -32 90 -55 8 -7 17 -12 20 -10 3 1 13
-5 23 -13 9 -8 21 -15 26 -15 12 0 64 -61 77 -90 27 -59 34 -81 24 -75 -6 4
-7 -2 -1 -17 4 -13 8 -40 7 -60 -1 -21 1 -38 4 -38 4 0 6 -10 5 -22 -1 -13 2
-29 8 -35 5 -7 6 -13 3 -13 -4 0 -1 -10 6 -22 7 -13 11 -27 10 -32 -2 -5 1
-12 5 -15 5 -3 17 -23 28 -43 11 -21 23 -38 27 -38 5 0 8 -4 8 -9 0 -13 50
-67 50 -55 0 5 5 1 11 -9 10 -17 68 -58 100 -70 15 -5 17 2 14 51 -2 31 -4 57
-5 57 -1 0 -3 23 -6 50 -7 77 -12 98 -25 106 -6 4 -8 12 -5 18 4 6 3 11 -2 11
-25 0 -53 182 -34 215 4 6 7 15 8 21 2 13 54 112 54 102 0 -3 16 9 35 28 32
31 41 36 61 33 4 0 10 3 13 8 19 29 195 38 213 11 4 -7 8 -10 8 -5 0 11 72
-29 98 -55 40 -41 62 -70 57 -78 -3 -4 1 -10 9 -13 8 -3 13 -14 12 -24 -2 -10
1 -21 7 -24 5 -4 9 -35 9 -70 0 -65 -20 -132 -53 -179 -16 -23 -25 -59 -34
-130 -2 -14 -4 -25 -5 -25 -1 0 -4 -20 -6 -45 -2 -25 -6 -52 -8 -61 -2 -9 2
-16 8 -14 37 10 56 18 56 26 0 5 6 9 14 9 19 0 132 112 141 139 3 12 11 18 17
15 6 -4 8 -2 4 4 -3 6 -2 13 4 17 5 3 10 15 10 25 0 10 4 20 8 22 18 7 40 129
37 205 -3 66 -9 118 -15 118 -1 0 -3 11 -6 24 -5 25 -34 82 -47 92 -5 3 -8 10
-8 15 0 5 -9 19 -19 32 -11 12 -20 27 -20 32 0 6 -6 10 -14 10 -8 0 -16 6 -19
14 -15 39 -176 121 -262 133 -70 10 -187 4 -202 -10 -3 -4 -13 -7 -20 -7 -8 0
-35 -10 -61 -21 -26 -12 -48 -21 -49 -21 -1 0 -19 -7 -39 -17 -58 -28 -130
-21 -211 21 -122 63 -158 83 -161 91 -2 4 -8 7 -12 7 -13 0 -133 79 -142 93
-4 7 -8 8 -8 3 0 -12 -91 83 -120 127 -14 20 -29 37 -33 37 -5 0 -5 5 -2 10 3
6 3 10 -2 10 -4 0 -16 18 -27 39 -10 21 -37 59 -60 85 -24 25 -40 48 -38 51 3
3 1 5 -4 5 -5 0 -25 10 -44 22 -19 12 -39 23 -45 24 -5 1 -21 6 -35 12 -14 5
-29 11 -35 12 -5 1 -20 6 -31 11 -12 4 -24 6 -25 4z m1 -1175 c3 -1 13 -1 24
0 13 1 16 -2 10 -12 -6 -10 -5 -11 7 -1 12 10 21 9 41 -1 16 -9 31 -10 42 -4
10 6 16 5 16 -2 0 -5 11 -10 25 -10 14 0 25 -4 25 -10 0 -5 3 -9 8 -9 4 1 10
0 15 -1 4 -1 10 -3 15 -4 56 -13 252 -164 252 -196 0 -6 5 -8 10 -5 6 3 10 -1
10 -9 0 -9 5 -16 10 -16 6 0 10 -7 10 -15 0 -8 5 -15 10 -15 6 0 10 -7 10 -15
0 -8 5 -15 10 -15 6 0 10 -9 10 -19 0 -11 5 -21 12 -23 6 -2 12 -13 13 -24 1
-10 7 -32 14 -48 16 -40 30 -104 23 -111 -3 -3 -1 -5 4 -5 13 0 13 -183 0
-192 -7 -5 -7 -8 2 -8 9 0 10 -5 4 -17 -5 -10 -7 -24 -5 -30 3 -7 0 -13 -7
-13 -6 0 -9 -4 -5 -9 3 -5 1 -12 -5 -16 -6 -4 -8 -10 -5 -15 7 -11 -50 -133
-85 -185 -27 -39 -120 -140 -120 -131 0 3 -11 -5 -24 -17 -41 -38 -54 -46 -60
-40 -3 4 -6 1 -6 -5 0 -7 -7 -12 -15 -12 -8 0 -15 -4 -15 -10 0 -5 -3 -9 -7
-8 -5 1 -30 -8 -58 -21 -27 -12 -61 -25 -75 -27 -14 -2 -36 -7 -50 -10 -41 -9
-220 -12 -225 -3 -3 4 -14 5 -25 2 -11 -3 -20 -1 -20 4 0 5 -10 9 -22 8 -13
-1 -29 2 -35 8 -7 5 -13 6 -13 3 0 -4 -15 1 -32 10 -18 9 -42 21 -53 27 -77
40 -101 55 -126 80 -15 15 -32 27 -38 27 -6 0 -11 3 -11 8 0 4 -10 18 -23 32
-35 38 -102 141 -117 180 -7 19 -17 39 -22 45 -4 5 -8 19 -8 30 0 12 -3 25 -7
29 -8 8 -19 88 -24 181 -1 18 12 129 16 135 2 4 7 22 10 40 3 19 10 39 15 46
6 6 7 14 3 17 -3 4 -1 7 5 7 7 0 12 3 11 8 -2 16 14 52 24 52 6 0 7 3 4 6 -8
8 32 68 80 120 12 13 19 24 16 24 -4 0 12 14 35 31 23 17 42 36 42 42 0 5 3 7
6 4 4 -4 21 5 37 19 26 21 56 39 87 49 3 1 19 7 35 14 17 7 35 14 40 15 6 1
15 4 20 8 11 6 89 21 117 22 9 1 19 3 21 6 5 5 75 4 87 0z"/>
<path d="M1799 2755 c-1 -5 -2 -72 -3 -147 l-2 -138 37 0 38 0 -2 55 c-2 62 6
70 74 63 34 -3 34 -3 35 -58 1 -53 2 -55 32 -61 17 -3 34 -4 37 -1 8 8 6 292
-2 293 -69 7 -66 10 -65 -68 1 -34 -3 -43 -16 -44 -103 -5 -96 -9 -92 53 3 47
-7 63 -40 63 -16 0 -31 -4 -31 -10z"/>
<path d="M2184 2761 c-5 -3 -9 -70 -9 -148 -1 -134 0 -142 20 -145 44 -8 57 2
53 38 -2 19 0 34 5 34 4 0 5 5 2 11 -4 6 -8 23 -9 39 -3 44 18 20 38 -43 19
-61 25 -71 47 -79 19 -8 62 19 54 33 -4 5 -1 9 4 9 6 0 10 3 10 8 -1 4 -1 9 1
12 1 3 3 15 6 28 2 13 10 35 17 49 13 23 14 19 12 -48 -1 -41 2 -79 7 -85 4
-6 21 -9 38 -6 l31 4 -2 120 c-1 65 1 121 4 124 7 8 -4 44 -14 45 -5 1 -18 1
-29 1 -42 0 -49 -3 -56 -24 -5 -13 -7 -26 -6 -30 1 -5 -3 -8 -9 -8 -5 0 -7 -4
-4 -10 3 -5 1 -10 -4 -10 -6 0 -10 -3 -9 -7 0 -5 -2 -16 -5 -25 -4 -10 -10
-26 -14 -35 -3 -10 -5 -21 -5 -25 1 -5 -3 -8 -9 -8 -5 0 -7 -5 -3 -12 4 -7 3
-8 -4 -4 -7 4 -12 13 -12 19 0 14 -44 125 -54 134 -3 3 -6 15 -6 25 0 12 -8
18 -22 19 -13 0 -30 2 -39 4 -9 1 -20 0 -25 -4z"/>
<path d="M2659 2739 c-20 -19 -29 -37 -29 -58 0 -31 36 -85 51 -75 4 2 10 0
14 -6 3 -5 17 -10 30 -10 33 0 59 -37 40 -56 -20 -20 -86 11 -67 31 4 5 0 4
-8 -1 -8 -4 -25 -7 -37 -5 -17 2 -23 -3 -23 -17 0 -24 46 -72 71 -73 24 -2 54
-2 77 0 25 2 66 42 70 70 5 35 -7 71 -23 71 -8 0 -15 4 -15 10 0 5 -18 14 -40
20 -34 9 -77 47 -66 58 9 8 41 9 47 0 3 -5 22 -13 42 -18 45 -10 69 10 43 35
-9 9 -16 20 -16 25 0 10 -45 22 -93 25 -30 1 -45 -5 -68 -26z"/>
<path d="M1813 4071 c-12 -11 -24 -17 -27 -14 -3 4 -6 0 -6 -8 0 -8 -14 -23
-30 -33 -17 -9 -41 -28 -55 -42 -13 -13 -28 -24 -32 -24 -5 0 -20 -11 -35 -25
-15 -14 -31 -25 -36 -25 -5 0 -17 -9 -27 -20 -10 -11 -21 -17 -25 -15 -5 3
-10 2 -12 -3 -13 -32 -390 -213 -493 -236 -37 -9 -102 -31 -112 -39 -7 -5 -17
-6 -23 -2 -5 3 -10 1 -10 -4 0 -6 -5 -11 -11 -11 -15 0 -62 -51 -77 -83 -24
-56 -11 -135 30 -181 10 -11 18 -24 18 -30 0 -5 3 -6 6 -3 4 3 16 1 28 -5 31
-17 85 -27 91 -17 3 4 11 6 18 3 17 -6 55 14 106 55 22 18 42 32 45 32 3 0 21
14 40 32 19 17 47 41 61 52 15 11 35 27 45 37 10 9 21 14 24 11 3 -4 6 -1 6 5
0 7 5 12 10 12 6 0 16 5 23 10 48 41 61 49 68 44 5 -3 9 -1 9 4 0 5 14 15 30
22 17 7 30 17 30 23 0 6 3 7 7 4 3 -4 15 0 25 10 10 9 18 12 18 7 0 -5 4 -4 8
1 6 9 106 59 121 61 3 0 24 9 46 19 71 32 136 58 150 60 6 1 21 6 35 12 14 6
31 12 38 14 9 3 4 16 -17 44 -17 22 -31 47 -31 56 0 8 -4 19 -10 25 -5 5 -11
18 -13 29 -1 11 -6 25 -10 31 -4 7 -8 32 -9 58 -2 25 -7 46 -11 46 -5 0 -5 5
-2 10 10 16 1 12 -22 -9z"/>
<path d="M3600 3553 c-59 -31 -93 -83 -93 -142 0 -44 9 -126 13 -126 2 0 4
-13 5 -30 2 -16 4 -30 5 -30 1 0 3 -11 4 -25 2 -14 6 -40 10 -57 4 -23 3 -33
-6 -33 -10 0 -10 -2 0 -9 10 -6 14 -40 15 -125 1 -69 6 -116 12 -116 7 0 7 -3
0 -8 -5 -4 -11 -36 -11 -72 -1 -63 -10 -164 -20 -225 -3 -16 -7 -41 -9 -55 -1
-14 -4 -25 -5 -25 -3 0 -12 -58 -14 -84 -1 -26 4 -27 171 -31 12 0 25 -5 28
-10 4 -6 10 -8 15 -5 5 3 25 -4 44 -15 20 -11 36 -16 36 -12 0 4 5 0 10 -8 8
-12 9 -9 6 10 -6 29 -16 90 -22 140 -3 19 -7 51 -10 70 -8 50 -12 470 -4 470
3 0 6 10 6 23 1 21 10 90 21 147 2 14 5 35 6 48 0 12 4 22 7 22 5 0 11 36 13
83 1 9 4 17 8 17 3 0 6 24 6 53 1 59 -16 99 -59 139 -26 24 -47 31 -123 42
-11 1 -40 -8 -65 -21z"/>
<path d="M1479 1703 c-8 -16 -18 -31 -24 -35 -5 -4 -6 -8 -1 -8 20 0 -104
-140 -124 -140 -6 0 -10 -4 -10 -10 0 -5 -5 -9 -11 -7 -18 3 -22 -22 -5 -28 9
-3 24 -8 34 -12 9 -3 19 -7 22 -8 11 -4 47 -18 75 -30 17 -6 46 -18 65 -25 19
-7 39 -17 45 -22 5 -4 17 -8 28 -8 10 0 15 -4 12 -10 -3 -5 3 -10 14 -10 12 0
21 -5 21 -12 0 -6 3 -9 6 -5 3 3 24 -5 45 -19 21 -13 43 -24 49 -24 5 0 10 -4
10 -10 0 -5 5 -10 10 -10 14 0 129 -72 158 -99 12 -12 27 -21 32 -21 6 0 10
-4 10 -10 0 -5 5 -10 10 -10 11 0 17 -5 98 -80 24 -22 48 -40 53 -40 6 0 7 -4
4 -10 -3 -5 -1 -10 6 -10 6 0 19 -8 28 -18 24 -27 91 -76 110 -80 21 -5 82 -5
101 0 27 7 65 31 82 52 10 12 21 26 26 31 5 6 7 16 4 23 -2 6 1 12 6 12 5 0 8
22 6 49 -3 51 -27 111 -44 111 -5 0 -12 9 -15 20 -3 11 -14 20 -24 20 -10 0
-21 3 -25 8 -4 4 -11 7 -14 8 -4 0 -14 4 -22 7 -28 12 -75 30 -82 32 -5 2 -11
4 -15 5 -5 1 -11 2 -15 1 -5 0 -8 4 -8 10 0 5 -4 8 -9 4 -5 -3 -15 0 -23 7 -7
7 -20 14 -28 16 -8 2 -33 12 -56 23 -24 10 -48 19 -53 19 -6 0 -11 5 -11 11 0
5 -4 8 -9 4 -5 -3 -16 2 -24 10 -9 8 -23 15 -31 15 -9 0 -16 4 -16 8 0 4 -16
14 -35 21 -21 7 -33 17 -29 23 4 6 3 8 -3 5 -5 -3 -26 5 -45 18 -20 13 -38 21
-42 18 -3 -4 -6 1 -6 11 0 9 -4 14 -10 11 -5 -3 -10 -1 -10 4 0 6 -6 11 -12
11 -7 0 -28 13 -46 28 -17 15 -44 36 -58 47 -14 11 -37 30 -50 43 -13 13 -24
21 -24 18 0 -2 -18 13 -40 35 -21 21 -41 39 -43 39 -2 0 -10 -12 -18 -27z"/>
</g>
</svg>
